<svg xmlns="http://www.w3.org/2000/svg" viewBox="0 0 216 110"><use href="#maple" x="10" y="78" width="26" height="26" fill="--ember-accent" transform="rotate(18 23 91)"/><use href="#oak" x="38" y="90" width="18" height="18" fill="--ember-h2" transform="rotate(-40 47 99)"/><use href="#maple" x="58" y="76" width="22" height="22" fill="--ember-h3" transform="rotate(62 69 87)"/><use href="#elm" x="88" y="94" width="16" height="16" fill="--ember-accent" transform="rotate(-75 96 102)"/><use href="#maple" x="106" y="78" width="24" height="24" fill="--ember-h2" transform="rotate(-12 118 90)"/><use href="#oak" x="136" y="90" width="18" height="18" fill="--ember-h3" transform="rotate(100 145 99)"/><use href="#maple" x="160" y="72" width="28" height="28" fill="--ember-accent" transform="rotate(-28 174 86)"/><use href="#elm" x="190" y="94" width="16" height="16" fill="--ember-h2" transform="rotate(40 198 102)"/><use href="#maple" x="118" y="39" width="13" height="13" fill="--ember-h3" transform="rotate(35 124.5 45.5)" opacity="0.7"/><use href="#elm" x="170" y="15" width="11" height="11" fill="--ember-accent" transform="rotate(-65 175.5 20.5)" opacity="0.55"/></svg>
